<?xml version="1.0" encoding="utf-8"?>
<!-- Generator: Adobe Illustrator 15.1.0, SVG Export Plug-In . SVG Version: 6.00 Build 0)  -->
<!DOCTYPE svg PUBLIC "-//W3C//DTD SVG 1.1//EN" "http://www.w3.org/Graphics/SVG/1.1/DTD/svg11.dtd">
<svg version="1.1" id="Layer_1" xmlns="http://www.w3.org/2000/svg" xmlns:xlink="http://www.w3.org/1999/xlink" x="0px" y="0px"
	 width="843.89px" height="597.275px" viewBox="0 0 843.89 597.275" enable-background="new 0 0 843.89 597.275"
	 xml:space="preserve">
<rect y="2" fill-rule="evenodd" clip-rule="evenodd" fill="#FFFFFF" width="841.89" height="595.275"/>
<path fill-rule="evenodd" clip-rule="evenodd" fill="#1C4104" d="M376.966,358.082c6.198,16.461,1.149,19.121,16.418,34.771
	c41.744,2.082,85.843-24.836,99.82-69.404l-8.018,1.271L376.966,358.082z"/>
<path fill-rule="evenodd" clip-rule="evenodd" fill="#1C4104" d="M524.081,179.867c-98.96-20.719-191.903,67.587-165.09,156.93
	l136.654-22.805c0.418-2.023,0.781-4.072,1.076-6.156C502.979,263.477,471.619,192.41,524.081,179.867"/>
<linearGradient id="SVGID_1_" gradientUnits="userSpaceOnUse" x1="474.668" y1="387.5361" x2="307.7839" y2="257.7368">
	<stop  offset="0" style="stop-color:#328B09"/>
	<stop  offset="1" style="stop-color:#D7F241"/>
</linearGradient>
<path fill-rule="evenodd" clip-rule="evenodd" fill="url(#SVGID_1_)" d="M358.421,344.846c5.961,16.143,15.833,32.008,30.333,46.867
	c40.483,2.02,81.558-24.49,96.436-66.992L358.421,344.846z"/>
<linearGradient id="SVGID_2_" gradientUnits="userSpaceOnUse" x1="524.0908" y1="323.9932" x2="357.2067" y2="194.1939">
	<stop  offset="0" style="stop-color:#328B09"/>
	<stop  offset="1" style="stop-color:#D7F241"/>
</linearGradient>
<path fill-rule="evenodd" clip-rule="evenodd" fill="url(#SVGID_2_)" d="M524.081,179.867
	c-95.901-35.24-195.667,63.854-168.163,157.441l132.064-22.037c0.815-3.328,1.479-6.738,1.971-10.229
	C496.212,260.682,471.107,189.914,524.081,179.867"/>
<defs>
	<filter id="Adobe_OpacityMaskFilter" filterUnits="userSpaceOnUse" x="354.349" y="175.737" width="125.494" height="161.065">
		<feColorMatrix  type="matrix" values="1 0 0 0 0  0 1 0 0 0  0 0 1 0 0  0 0 0 1 0"/>
	</filter>
</defs>
<mask maskUnits="userSpaceOnUse" x="354.349" y="175.737" width="125.494" height="161.065" id="SVGID_3_">
	<g filter="url(#Adobe_OpacityMaskFilter)">
		
			<linearGradient id="SVGID_4_" gradientUnits="userSpaceOnUse" x1="121.6279" y1="461.8057" x2="233.5363" y2="534.5701" gradientTransform="matrix(1 0 0 1 192.6973 -272.3594)">
			<stop  offset="0" style="stop-color:#FFFFFF"/>
			<stop  offset="1" style="stop-color:#000000"/>
		</linearGradient>
		<rect x="354.349" y="175.737" fill="url(#SVGID_4_)" width="125.494" height="161.065"/>
	</g>
</mask>
<path mask="url(#SVGID_3_)" fill-rule="evenodd" clip-rule="evenodd" fill="#FFFFFF" d="M358.966,336.802
	c-0.505-1.697-0.971-3.41-1.397-5.14c-4.783-19.407-4.147-39.4,1.297-58.595c6.569-23.158,19.874-44.271,37.271-60.83
	c12.291-11.698,26.715-21.216,42.447-27.608c13.407-5.447,27.301-8.45,41.258-8.892c-0.279,0.077-114.792,31.721-111.996,159.582
	L358.966,336.802z"/>
<path fill-rule="evenodd" clip-rule="evenodd" fill="#1C4104" d="M382.7,340.992c-0.136,4.125-0.147,8.299-0.027,12.514
	c-3.043-3.566-5.835-7.303-8.36-11.182l-3.718,0.59c3.289,6.129,7.364,12.148,12.235,17.842c0.061,2.965,0.201,5.945,0.429,8.938
	c0.586,7.695,1.723,15.215,3.353,22.531c6.426,16.297,11.671,25.328,28.141,33.322c-7.748-7.135-13.492-17.842-17.602-30.025
	l0.127,0.006c-2.803-11.525-4.614-23.064-5.487-34.512c17.88-6.264,32.645-16.582,43.293-28.34l-4.502,0.715
	c-11.21,9.635-24.508,17.098-39.152,21.885c-0.257-5.238-0.32-10.455-0.192-15.639L382.7,340.992z"/>
<path fill-rule="evenodd" clip-rule="evenodd" fill="#1C4104" d="M369.934,334.971c-4.231-7.83-7.422-16.141-9.454-24.748
	c0.668,8.057,2.835,16.665,6.514,25.239L369.934,334.971z M442.84,322.805c1.715-2.541,3.244-5.115,4.578-7.695
	c-2.004,2.771-4.144,5.439-6.408,8L442.84,322.805z M436.375,214.639c-13.828,12.809-26.266,29.923-35.691,50.139
	c-1.121-15.566,1.132-31.007,6.728-45.207c-8.097,14-12.529,33.232-10.514,53.905c-4.989,12.291-8.872,25.58-11.329,39.628
	c-7.277-13.999-11.34-29.246-11.768-44.664c-1.899,15.585,1.311,34.35,10.612,52.107c-0.546,4.02-0.976,8.095-1.282,12.221
	l8.462-1.411c0.212-3.329,0.503-6.643,0.87-9.938c25.366-9.464,44.212-27.104,53.537-45.144
	c-12.85,17.768-31.253,31.342-52.771,39.061c1.273-9.051,3.124-17.955,5.523-26.654l0.427-1.071l-0.297,0.606
	c1.259-4.527,2.667-8.998,4.218-13.406c19.448-9.435,33.947-24.003,41.625-38.858c-9.978,13.797-23.494,24.925-39.274,32.509
	C413.042,248.933,423.482,230.76,436.375,214.639z"/>
<polygon fill-rule="evenodd" clip-rule="evenodd" fill="#1C4104" points="355.918,337.309 355.527,335.949 496.961,305.951 
	495.645,313.992 "/>
</svg>
